<svg width="64" height="64" viewBox="0 0 64 64" fill="none" xmlns="http://www.w3.org/2000/svg">
<g clip-path="url(#clip0_33_654)">
<path fill-rule="evenodd" clip-rule="evenodd" d="M32 0.789337C14.328 0.789337 0 15.1147 0 32.7893C0 46.928 9.168 58.9227 21.8827 63.1547C23.4827 63.4507 24.0693 62.4613 24.0693 61.616C24.0693 60.8533 24.04 58.3333 24.0267 55.6587C15.1253 57.5947 13.2453 51.8827 13.2453 51.8827C11.7893 48.184 9.69333 47.2 9.69333 47.2C6.78933 45.2133 9.912 45.256 9.912 45.256C13.1253 45.4827 14.816 48.5547 14.816 48.5547C17.6693 53.4453 22.3013 52.032 24.128 51.2133C24.416 49.144 25.2453 47.7333 26.16 46.9333C19.0533 46.1253 11.5813 43.3813 11.5813 31.12C11.5813 27.6267 12.832 24.7707 14.88 22.5307C14.5467 21.7227 13.4507 18.4693 15.1893 14.0613C15.1893 14.0613 17.8773 13.2027 23.992 17.3413C26.544 16.632 29.28 16.2773 32 16.264C34.72 16.2773 37.4587 16.632 40.016 17.3413C46.1227 13.2 48.808 14.0613 48.808 14.0613C50.5493 18.4693 49.4533 21.7227 49.1227 22.5307C51.1733 24.7707 52.416 27.6267 52.416 31.12C52.416 43.4107 44.9307 46.1173 37.8053 46.9093C38.952 47.9013 39.976 49.8507 39.976 52.8347C39.976 57.1173 39.9387 60.5627 39.9387 61.616C39.9387 62.4667 40.5147 63.4667 42.136 63.152C54.8453 58.9147 64.0027 46.9253 64.0027 32.792C64 15.1173 49.672 0.789337 32 0.789337Z" fill="#557650"/>
<path d="M12.1201 46.736C12.0508 46.896 11.8001 46.944 11.5708 46.8347C11.3388 46.7307 11.2081 46.512 11.2828 46.3547C11.3521 46.192 11.6028 46.1467 11.8348 46.256C12.0668 46.3573 12.2001 46.576 12.1201 46.736Z" fill="#557650"/>
<path d="M13.4161 48.1813C13.2641 48.3227 12.9654 48.256 12.7627 48.0347C12.5521 47.8107 12.5147 47.512 12.6694 47.3707C12.8267 47.2293 13.1147 47.296 13.3254 47.52C13.5361 47.7413 13.5761 48.0373 13.4161 48.1813Z" fill="#557650"/>
<path d="M14.6774 50.024C14.4801 50.16 14.1601 50.032 13.9628 49.7493C13.7654 49.464 13.7654 49.1227 13.9681 48.9867C14.1654 48.8507 14.4828 48.9733 14.6828 49.256C14.8774 49.544 14.8774 49.8853 14.6774 50.024Z" fill="#557650"/>
<path d="M16.4052 51.8053C16.2292 52 15.8559 51.9467 15.5839 51.6827C15.3039 51.424 15.2265 51.0587 15.4025 50.864C15.5812 50.6693 15.9572 50.7253 16.2319 50.9867C16.5092 51.2453 16.5919 51.6133 16.4052 51.8053Z" fill="#557650"/>
<path d="M18.7922 52.8373C18.7149 53.088 18.3549 53.2027 17.9922 53.096C17.6295 52.9867 17.3922 52.6933 17.4669 52.44C17.5415 52.1867 17.9042 52.0693 18.2695 52.184C18.6295 52.2907 18.8669 52.584 18.7922 52.8373Z" fill="#557650"/>
<path d="M21.4107 53.0293C21.4187 53.2933 21.112 53.512 20.7307 53.5173C20.3493 53.5253 20.0373 53.312 20.0347 53.0533C20.0347 52.7867 20.336 52.5707 20.7173 52.5627C21.0987 52.5547 21.4107 52.768 21.4107 53.0293Z" fill="#557650"/>
<path d="M23.8479 52.616C23.8932 52.872 23.6292 53.1387 23.2506 53.208C22.8799 53.2773 22.5359 53.1173 22.4879 52.8613C22.4426 52.5973 22.7119 52.3333 23.0826 52.264C23.4586 52.1973 23.7999 52.352 23.8479 52.616Z" fill="#557650"/>
</g>
<defs>
<clipPath id="clip0_33_654">
<rect width="64" height="64" fill="white"/>
</clipPath>
</defs>
</svg>
