<svg width="64" height="64" viewBox="0 0 64 64" fill="none" xmlns="http://www.w3.org/2000/svg">
<g clip-path="url(#clip0_46_342)">
<path d="M61.3386 57.5573H61.9439L60.7839 55.8027C61.4932 55.8027 61.8692 55.352 61.8746 54.8C61.8746 54.7787 61.8746 54.7547 61.8719 54.7333C61.8719 53.9813 61.4186 53.6213 60.4879 53.6213H58.9839V57.5573H59.5492V55.8427H60.2452L61.3386 57.5573ZM60.2052 55.3973H59.5492V54.0667H60.3812C60.8106 54.0667 61.3012 54.136 61.3012 54.6987C61.3012 55.344 60.8079 55.3973 60.2052 55.3973Z" fill="#557650"/>
<path d="M46.1093 50.8613H38.0907V38.304C38.0907 35.3093 38.0373 31.456 33.92 31.456C29.744 31.456 29.104 34.7173 29.104 38.088V50.8613H21.088V25.0373H28.7867V28.5653H28.8933C30.464 25.8827 33.3813 24.28 36.488 24.3947C44.616 24.3947 46.112 29.7413 46.112 36.6933L46.1093 50.8613ZM12.04 21.5067C9.46933 21.5067 7.38667 19.424 7.38667 16.8533C7.38667 14.2827 9.46933 12.2 12.04 12.2C14.6107 12.2 16.6933 14.2827 16.6933 16.8533C16.6933 19.424 14.6107 21.5067 12.04 21.5067ZM16.048 50.8613H8.02133V25.0373H16.048V50.8613ZM50.1067 4.75466H3.992C1.81333 4.73066 0.0266667 6.47733 0 8.656V54.96C0.0266667 57.1413 1.81333 58.888 3.992 58.864H50.1067C52.2907 58.8907 54.0853 57.144 54.1147 54.96V8.65333C54.0827 6.46933 52.288 4.72266 50.1067 4.752" fill="#557650"/>
<path d="M60.2746 51.8693C58.2373 51.888 56.6 53.5573 56.6213 55.5947C56.64 57.632 58.3093 59.2693 60.3466 59.248C62.384 59.2293 64.0213 57.56 64 55.5227C63.9813 53.512 62.3546 51.888 60.3466 51.8693H60.2746ZM60.36 58.824C58.5733 58.8533 57.016 57.432 56.9866 55.6453C56.9573 53.8587 58.3813 52.3867 60.168 52.3573C61.9546 52.328 63.4266 53.752 63.456 55.5387C63.456 55.5573 63.456 55.5733 63.456 55.592C63.4933 57.3387 62.1066 58.7867 60.36 58.824H60.2773Z" fill="#557650"/>
</g>
<defs>
<clipPath id="clip0_46_342">
<rect width="64" height="64" fill="white"/>
</clipPath>
</defs>
</svg>
