<?xml version="1.0" encoding="UTF-8"?>
<svg version="1.1" color="#FFFFFF" xmlns="http://www.w3.org/2000/svg" width="2244" height="2462">
<path d="M0 0 C57.92665417 51.55390519 53.91014449 164.28032915 58.07103622 235.57437038 C58.27929679 239.17312158 58.48373551 242.77208555 58.6875 246.37109375 C58.73023843 247.12297006 58.77297687 247.87484637 58.8170104 248.64950681 C60.90529487 285.45659189 62.30499597 322.28424093 63.61684853 359.12588841 C64.01918785 370.41935901 64.43251339 381.71242896 64.8449831 393.00553322 C64.87595009 393.85338965 64.90691707 394.70124608 64.93882245 395.57479513 C65.00100808 397.27720684 65.0632105 398.97961794 65.12542993 400.68202841 C65.3097171 405.72694016 65.49289197 410.77189084 65.67522246 415.81687367 C66.28874478 432.78367131 66.93165269 449.74779353 67.67720985 466.70939827 C69.10474706 499.25410203 69.9972171 531.8181484 70.96611255 564.37902397 C71.26454113 574.40558005 71.56611776 584.43204108 71.86791992 594.45849609 C71.90895031 595.82164936 71.90895031 595.82164936 71.9508096 597.21234107 C72.0609368 600.87085336 72.17107125 604.52936543 72.28125221 608.18787611 C72.41779385 612.72206067 72.55419751 617.2562493 72.69029427 621.79044724 C73.35905506 644.07066527 74.04324602 666.35023001 74.76171875 688.62890625 C74.8346958 690.90175262 74.90763866 693.17460009 74.98054504 695.44744873 C75.37198452 707.64575815 75.37198452 707.64575815 75.77316284 719.84375 C76.43523533 739.72606093 76.98233735 759.5685932 76.76953125 779.46484375 C77.4259108 779.44830246 78.08229034 779.43176117 78.75856018 779.41471863 C88.18945882 779.28706948 97.47570734 780.06775952 106.859375 780.890625 C108.61117934 781.04075137 110.36301626 781.19049802 112.11488342 781.33988953 C115.78219124 781.65369519 119.44918392 781.97089141 123.1159668 782.29077148 C127.72292914 782.69257358 132.33042764 783.08775742 136.93814659 783.48077583 C145.78594835 784.23579899 154.63178265 785.00996389 163.47556114 785.81079292 C168.09747467 786.22869593 172.72020046 786.63105096 177.34505749 787.0149622 C180.59337892 787.28911547 183.8394593 787.58774611 187.0859375 787.8828125 C188.1983934 787.96976883 189.3108493 788.05672516 190.45701599 788.14631653 C206.09797242 789.64069838 217.91264214 796.20380075 227.984375 808.09765625 C236.10065683 818.86016563 238.74389665 831.87306583 237.3359375 845.15234375 C235.22289884 857.50997672 228.95678209 868.64849791 219.29296875 876.6796875 C207.13966039 885.27730657 195.26063531 886.79217714 180.83203125 887.46484375 C179.21718688 887.54507087 177.60235983 887.625647 175.98754883 887.70654297 C171.54174923 887.92572532 167.09541607 888.1314225 162.64880371 888.33337402 C159.68533992 888.46868799 156.72206134 888.60762921 153.75878906 888.74707031 C148.52552436 888.99193841 143.29186802 889.22636136 138.05783081 889.45410156 C136.04384641 889.54226677 134.02994376 889.63232736 132.0161438 889.72460938 C114.26197553 890.5299012 96.53761893 890.56145734 78.76953125 890.46484375 C78.77619308 891.60469727 78.78285492 892.74455078 78.78971863 893.91894531 C79.1526945 958.23920043 78.56766739 1022.41765931 76.0651722 1086.69204807 C75.84700375 1092.3332604 75.64590992 1097.97476041 75.46191406 1103.6171875 C73.14257682 1174.71451051 66.73854204 1245.59942616 60.76953125 1316.46484375 C63.01766447 1313.74019089 65.26477944 1311.0147 67.51171875 1308.2890625 C68.14489014 1307.52170776 68.77806152 1306.75435303 69.43041992 1305.96374512 C72.61932756 1302.09446793 75.79047535 1298.21536451 78.89453125 1294.27734375 C82.57067064 1289.64871428 86.41957009 1285.17871112 90.2800293 1280.70410156 C93.30981194 1277.18675126 96.28573777 1273.6360004 99.20703125 1270.02734375 C103.8268998 1264.34006875 108.62840015 1258.82030594 113.44140625 1253.296875 C115.5917474 1250.82747917 117.72783044 1248.34720041 119.84765625 1245.8515625 C125.26991524 1239.46822928 130.77235839 1233.19148376 136.49829102 1227.07763672 C139.09887506 1224.29774949 141.64078149 1221.48000521 144.13671875 1218.60546875 C147.85294099 1214.33848827 151.69781896 1210.20381309 155.58203125 1206.08984375 C156.62544678 1204.98165283 156.62544678 1204.98165283 157.68994141 1203.85107422 C162.35091395 1198.91789656 167.08436004 1194.08058659 171.94921875 1189.34765625 C173.94510311 1187.39598836 173.94510311 1187.39598836 175.76953125 1184.46484375 C176.42953125 1184.46484375 177.08953125 1184.46484375 177.76953125 1184.46484375 C178.12144531 1183.62373047 178.12144531 1183.62373047 178.48046875 1182.765625 C180.08342369 1179.90459331 182.05626355 1177.95079575 184.39453125 1175.65234375 C185.21179687 1174.84152344 186.0290625 1174.03070312 186.87109375 1173.1953125 C188.99028533 1171.19893121 191.11956577 1169.30331157 193.33203125 1167.41796875 C199.84175556 1161.76632351 205.77341399 1155.48655207 211.80419922 1149.33422852 C213.40032024 1147.70809456 215.00245448 1146.0880848 216.60546875 1144.46875 C217.09502045 1143.96573868 217.58457214 1143.46272736 218.08895874 1142.94447327 C219.27836662 1141.74622382 220.51977521 1140.60001012 221.76953125 1139.46484375 C222.42953125 1139.46484375 223.08953125 1139.46484375 223.76953125 1139.46484375 C224.09953125 1138.47484375 224.42953125 1137.48484375 224.76953125 1136.46484375 C226.4765625 1134.7109375 226.4765625 1134.7109375 228.58203125 1132.90234375 C229.61263672 1132.00322266 229.61263672 1132.00322266 230.6640625 1131.0859375 C232.76953125 1129.46484375 232.76953125 1129.46484375 234.96875 1128.4375 C237.1253877 1127.53797908 237.1253877 1127.53797908 237.76953125 1124.46484375 C239.1953125 1123.02734375 239.1953125 1123.02734375 241.08203125 1121.46484375 C244.67690053 1118.41660039 248.18052653 1115.28526099 251.64453125 1112.08984375 C252.68210317 1111.13651356 253.71986333 1110.18338819 254.7578125 1109.23046875 C255.26521973 1108.76447266 255.77262695 1108.29847656 256.29541016 1107.81835938 C261.78113693 1102.78144827 267.27893713 1097.82333136 273.08203125 1093.15234375 C277.30352268 1089.74061655 281.31022476 1086.17162708 285.26953125 1082.46484375 C290.02171525 1078.02026479 294.89311336 1073.81104408 299.96875 1069.734375 C303.05148046 1067.23637445 306.06664711 1064.66819605 309.08203125 1062.08984375 C314.12983372 1057.78644191 319.29533523 1053.66266969 324.53393555 1049.59472656 C328.57652411 1046.44145138 332.50455325 1043.17894071 336.39453125 1039.83984375 C341.34900938 1035.5954901 346.45165933 1031.62917296 351.703125 1027.75390625 C354.93912015 1025.33824618 358.1066186 1022.84965028 361.26953125 1020.33984375 C374.26911602 1010.06114506 387.58650075 1000.18599535 401.125 990.62988281 C402.81376739 989.43350544 404.49563114 988.22797635 406.17578125 987.01953125 C414.28654995 981.18848426 422.48772229 975.49940408 430.73291016 969.86035156 C432.76239505 968.46973353 434.78806265 967.07373533 436.8125 965.67578125 C448.98531171 957.27208086 461.20894979 948.99554507 473.79125977 941.21459961 C478.33307326 938.39544801 482.7823931 935.46378468 487.20703125 932.46484375 C493.7397293 928.05593759 500.45689473 924.03774471 507.2734375 920.0859375 C511.18223862 917.81860964 515.05255105 915.4921104 518.91772461 913.15136719 C529.85383295 906.53256924 540.93905943 900.20172697 552.09619141 893.96386719 C554.50730003 892.61188482 556.91118707 891.24818373 559.3125 889.87890625 C571.20805221 883.13124749 583.41694985 877.04208045 595.68115234 870.99584961 C597.71997466 869.98514173 599.75429048 868.96528543 601.78369141 867.93579102 C632.64439303 852.28843118 665.74412151 840.57159613 698.49707031 829.57177734 C701.5407928 828.54221619 704.57410076 827.4871606 707.60546875 826.421875 C761.00964839 807.8358939 817.60001216 797.077812 873.76953125 791.46484375 C874.73793945 791.36099365 875.70634766 791.25714355 876.70410156 791.15014648 C885.2442298 790.31669268 893.7757111 790.27871701 902.34863281 790.27954102 C904.86931545 790.27736551 907.38955115 790.25917335 909.91015625 790.24023438 C926.12494833 790.18412646 941.97247612 791.71694722 957.76953125 795.46484375 C958.41680176 795.61759766 959.06407227 795.77035156 959.73095703 795.92773438 C976.98028002 800.13223068 993.53540717 807.84477387 1007.76953125 818.46484375 C1008.83300781 819.24601563 1009.89648438 820.0271875 1010.9921875 820.83203125 C1028.55029909 833.91706609 1042.4537004 849.15028354 1053.40234375 868.109375 C1054.34331684 869.73053721 1055.31966469 871.33151126 1056.32421875 872.9140625 C1065.46855405 887.40396694 1068.33369365 903.63630831 1065.12109375 920.5390625 C1060.50033786 938.17297281 1049.74171148 950.70262859 1034.3671875 959.90234375 C1020.66849074 967.36224993 1004.93018524 968.47292375 989.95703125 964.83984375 C973.41098824 959.83795418 960.39333273 949.02086948 949.171875 936.19140625 C938.2351342 923.77865003 928.01894899 918.68159459 911.76953125 917.46484375 C828.80379866 913.90448481 740.40226107 940.65095837 650.11621094 979.36132812 C647.59198285 980.54833509 645.05977867 981.71733241 642.52734375 982.88671875 C631.85931963 987.84955955 621.51240808 993.20669714 611.29394531 999.03417969 C608.4695468 1000.63485428 605.63239288 1002.21129374 602.79296875 1003.78515625 C583.96953076 1014.23038143 565.5442042 1025.20702208 547.39941406 1036.78857422 C544.53423261 1038.61482151 541.66364019 1040.43239583 538.79296875 1042.25 C525.80754568 1050.49216602 513.00655792 1058.95859699 500.34667969 1067.69189453 C497.84034341 1069.41612853 495.32624727 1071.12828114 492.80859375 1072.8359375 C481.9835379 1080.1840932 471.32749629 1087.73830245 460.76953125 1095.46484375 C459.96950684 1096.04943359 459.16948242 1096.63402344 458.34521484 1097.23632812 C448.96414235 1104.09736157 439.65208846 1111.0295658 430.46972656 1118.15478516 C428.58572368 1119.60647376 426.69037247 1121.04243625 424.79296875 1122.4765625 C416.69814494 1128.60401779 408.75590993 1134.87103224 400.94995117 1141.36303711 C396.47112814 1145.08351338 391.93413045 1148.71084316 387.33203125 1152.27734375 C382.42639936 1156.08732946 377.76948158 1160.07781906 373.1953125 1164.28515625 C370.61825551 1166.60077267 367.96370734 1168.78689441 365.26953125 1170.96484375 C360.79955633 1174.58100324 356.52821477 1178.36076977 352.28125 1182.234375 C349.77494381 1184.46003726 347.20028732 1186.56005936 344.58203125 1188.65234375 C338.50914944 1193.56068146 332.87434087 1198.89984974 327.1953125 1204.25390625 C324.76294962 1206.54449563 322.30520606 1208.78825143 319.76953125 1210.96484375 C315.82272084 1214.36517271 312.01754202 1217.9135514 308.20703125 1221.46484375 C307.58119141 1222.04685547 306.95535156 1222.62886719 306.31054688 1223.22851562 C303.25128275 1226.08833246 300.24302853 1228.98070823 297.3046875 1231.96484375 C295.02647065 1234.26368223 292.69133396 1236.42169961 290.22460938 1238.51586914 C284.89757536 1243.15293494 279.93888472 1248.15094751 274.953125 1253.1484375 C273.92772201 1254.17316483 272.90217079 1255.19774386 271.8764801 1256.22218323 C269.73935062 1258.35784805 267.60401516 1260.49528583 265.4699707 1262.6340332 C262.7547725 1265.35492791 260.03510792 1268.07130685 257.3140707 1270.78636074 C255.1991105 1272.89768189 253.08656918 1275.0114105 250.97471809 1277.12584114 C249.97366462 1278.12755466 248.9718874 1279.12854552 247.96932793 1280.12875175 C242.87725776 1285.21148589 237.87925405 1290.31948008 233.20289612 1295.78993225 C230.95925627 1298.411664 228.61118841 1300.93034424 226.26953125 1303.46484375 C222.03043051 1308.07165816 217.86344005 1312.72875317 213.76953125 1317.46484375 C212.79320567 1318.58744567 211.81661782 1319.70981953 210.83984375 1320.83203125 C204.20435415 1328.46244672 197.62738827 1336.13868037 191.11230469 1343.87207031 C189.29396071 1346.02895688 187.47153393 1348.18237241 185.64868164 1350.33544922 C184.73070527 1351.41999061 183.81322303 1352.50495044 182.89624023 1353.59033203 C180.60115837 1356.30622653 178.29957709 1359.01607228 175.984375 1361.71484375 C170.99101936 1367.54977618 166.17563709 1373.46751376 161.53881836 1379.58984375 C158.5679611 1383.48927698 155.46137575 1387.24484428 152.26953125 1390.96484375 C147.29822505 1396.76688023 142.61610002 1402.75059113 138.00341797 1408.83984375 C135.93901907 1411.5586089 133.85313622 1414.26078933 131.76953125 1416.96484375 C130.93742134 1418.04681451 130.10539011 1419.12884578 129.2734375 1420.2109375 C127.59572776 1422.39215684 125.91583545 1424.5716709 124.234375 1426.75 C116.85741826 1436.31145752 109.50169605 1445.88041874 102.62109375 1455.80859375 C100.91050527 1458.26260253 99.17725304 1460.69905027 97.43359375 1463.12963867 C95.69023336 1465.56041883 93.95349462 1467.99588971 92.21777344 1470.43212891 C91.23234177 1471.81525502 90.2459777 1473.19771719 89.25878906 1474.57958984 C61.75597157 1513.15685244 37.04632674 1553.66582958 14.76953125 1595.46484375 C13.95719764 1596.97665192 13.14470987 1598.48837727 12.33203125 1600 C9.76550363 1604.79824374 7.26047185 1609.62699381 4.76953125 1614.46484375 C4.47133484 1615.04214233 4.17313843 1615.61944092 3.86590576 1616.2142334 C-23.99454526 1670.17843804 -44.05780047 1726.17571307 -53.23046875 1786.46484375 C-53.34374512 1787.20331543 -53.45702148 1787.94178711 -53.57373047 1788.70263672 C-58.67712112 1823.41053049 -59.17079439 1864.07285569 -44.23046875 1896.46484375 C-43.44349609 1898.19927734 -43.44349609 1898.19927734 -42.640625 1899.96875 C-26.95702274 1933.4557267 4.53058132 1954.48168316 38.32421875 1966.94140625 C53.52308495 1972.30623165 68.96644504 1976.33771388 84.76953125 1979.46484375 C85.74438477 1979.65916992 86.71923828 1979.85349609 87.72363281 1980.05371094 C170.95302215 1996.12733416 260.79425552 1985.51932216 348.76953125 1963.46484375 C349.4880426 1963.28371033 350.20655396 1963.1025769 350.94683838 1962.91595459 C417.07562451 1946.23103463 481.87556894 1922.20268003 542.02685547 1889.93408203 C545.11559988 1888.27945644 548.21005709 1886.63577712 551.3046875 1884.9921875 C570.8478915 1874.59266404 590.36405817 1864.10501725 609.2734375 1852.58203125 C612.36959125 1850.6965025 615.49699044 1848.8689729 618.63134766 1847.04785156 C640.96522921 1834.04996331 662.54511527 1819.97743108 683.59472656 1805.00585938 C685.77987721 1803.45751284 687.97256243 1801.92048242 690.16796875 1800.38671875 C697.73876713 1795.09130618 705.18708645 1789.69728205 712.47265625 1784.015625 C715.46815859 1781.68346446 718.50944913 1779.41704411 721.55810547 1777.1550293 C729.28566626 1771.41761836 736.79208315 1765.45326584 744.234375 1759.3515625 C746.88247849 1757.18140602 749.55460746 1755.05126526 752.26953125 1752.96484375 C767.52581055 1741.18908444 782.16089336 1728.66956481 796.3671875 1715.65234375 C798.43633677 1713.76824035 800.52807051 1711.92029628 802.64453125 1710.08984375 C811.6776452 1702.21340902 820.36789567 1694.01500475 828.74853516 1685.44897461 C831.63221868 1682.52005852 834.5727459 1679.73022692 837.6875 1677.046875 C841.92604833 1673.38573294 845.84939594 1669.46154421 849.76953125 1665.46484375 C854.34374367 1660.80129124 858.99128629 1656.347136 863.94335938 1652.0859375 C866.45722528 1649.85437739 868.72447497 1647.41867751 871.01953125 1644.96484375 C881.29722019 1634.40986925 893.08249186 1629.25708102 907.64453125 1629.02734375 C921.2313012 1629.11546054 933.06835027 1633.86676465 943.01953125 1643.21484375 C953.11778714 1653.9849594 957.6064148 1667.06104626 957.15234375 1681.7578125 C955.72207971 1695.60802242 949.42377944 1705.93631194 940.11328125 1715.9140625 C937.78967219 1718.44292369 935.61544693 1721.04419536 933.45703125 1723.71484375 C929.50478228 1728.59501204 925.44818496 1733.37264124 921.35229492 1738.13183594 C917.97200993 1742.06008742 914.6116524 1746.00407979 911.26953125 1749.96484375 C908.43625147 1753.32257734 905.5955008 1756.6731928 902.73046875 1760.00390625 C902.21548828 1760.60267578 901.70050781 1761.20144531 901.16992188 1761.81835938 C900.20367697 1762.94049014 899.23636094 1764.06170021 898.26757812 1765.18164062 C896.14428548 1767.64730295 894.04439531 1770.10976705 892.05200195 1772.68359375 C884.98034239 1781.70865933 876.84882589 1789.65259574 868.72192383 1797.71826172 C866.20398332 1800.21786949 863.69421365 1802.72546336 861.18554688 1805.234375 C859.56687803 1806.8481296 857.94775296 1808.46142676 856.328125 1810.07421875 C855.58831894 1810.81291199 854.84851288 1811.55160522 854.08628845 1812.31268311 C850.02623571 1816.33631057 845.88049671 1820.2033946 841.54518127 1823.92950439 C838.72156372 1826.37098278 835.99976525 1828.92005324 833.26953125 1831.46484375 C829.16126555 1835.27621156 825.02267317 1839.03576729 820.78125 1842.69921875 C818.30340418 1844.87394945 815.8837425 1847.10822777 813.45703125 1849.33984375 C808.97775262 1853.42479799 804.37661494 1857.30251906 799.66015625 1861.109375 C796.4494651 1863.72565441 793.29586386 1866.40273528 790.14453125 1869.08984375 C785.94284252 1872.66356105 781.68774651 1876.13543155 777.3046875 1879.484375 C775.28718557 1881.06045123 773.30306421 1882.66079099 771.328125 1884.2890625 C763.26802783 1890.93070547 755.06534295 1897.29376969 746.62304688 1903.44360352 C742.14466798 1906.70643542 737.74133391 1910.02901396 733.39453125 1913.46484375 C725.44859286 1919.6149198 717.04508697 1925.07694057 708.64453125 1930.58105469 C705.70338716 1932.50818341 702.76760732 1934.44330881 699.83203125 1936.37890625 C690.57830466 1942.46452621 681.30311814 1948.47261986 671.76171875 1954.09765625 C667.61565512 1956.54299206 663.51056696 1959.05413255 659.40332031 1961.56396484 C643.30337184 1971.40108039 627.08328157 1980.91668219 610.55957031 1990.02514648 C605.12660077 1993.02337938 599.72484255 1996.05855471 594.375 1999.203125 C590.26968086 2001.61055069 586.16854701 2003.87395834 581.89453125 2005.96484375 C580.51653438 2006.6411275 579.13896916 2007.31829113 577.76171875 2007.99609375 C576.59721191 2008.5684375 576.59721191 2008.5684375 575.40917969 2009.15234375 C572.37442993 2010.66129813 569.35725005 2012.20275313 566.33984375 2013.74609375 C536.22943558 2029.10517583 505.3493621 2042.43615728 473.76953125 2054.46484375 C472.87669434 2054.80773438 471.98385742 2055.150625 471.06396484 2055.50390625 C466.57666737 2057.22296254 462.07048732 2058.87726554 457.54052734 2060.48046875 C455.48619936 2061.21025293 453.4348934 2061.9485561 451.38525391 2062.69140625 C397.44204837 2082.2268578 341.30642846 2095.94987459 284.76953125 2105.46484375 C284.0078363 2105.59332703 283.24614136 2105.7218103 282.46136475 2105.85418701 C206.72664429 2118.53177848 125.14357142 2121.09380614 -32.23046875 2077.46484375 C-33.56972904 2076.82559908 -34.90958433 2076.18759967 -36.25 2075.55078125 C-60.74685878 2063.76725791 -82.6134631 2048.45404035 -102.5078125 2029.96484375 C-104.64527747 2028.00217864 -106.80414163 2026.12049449 -109.04296875 2024.27734375 C-112.86722646 2021.03224045 -116.01518532 2017.30118797 -119.23046875 2013.46484375 C-120.00519531 2012.56636719 -120.77992188 2011.66789062 -121.578125 2010.7421875 C-127.18242277 2004.16774853 -132.32253574 1997.41593394 -137.08740234 1990.1953125 C-137.85222694 1989.03745758 -138.62345478 1987.88380808 -139.40087891 1986.734375 C-186.05682089 1917.52392319 -186.56930123 1828.56408555 -171.23046875 1749.46484375 C-156.01802963 1672.74432024 -126.07905158 1599.4967454 -86.72900391 1532.03759766 C-83.87631959 1527.13997835 -81.06941646 1522.21853415 -78.29296875 1517.27734375 C-77.75333496 1516.34873535 -77.21370117 1515.42012695 -76.65771484 1514.46337891 C-76.1777002 1513.60405762 -75.69768555 1512.74473633 -75.203125 1511.859375 C-74.77265869 1511.10503174 -74.34219238 1510.35068848 -73.89868164 1509.57348633 C-72.99136558 1507.45208645 -72.99136558 1507.45208645 -73.9987793 1505.33642578 C-75.55229204 1502.97582544 -77.24800708 1500.76007051 -78.98046875 1498.52734375 C-120.65452882 1441.15980881 -116.82521949 1330.68452737 -126.12866211 1262.07495117 C-134.53362364 1199.66904367 -134.53362364 1199.66904367 -144.66796875 1137.52734375 C-144.90395705 1136.19409357 -145.13970019 1134.86079997 -145.37521362 1133.52746582 C-151.96455114 1096.23829544 -159.29875546 1059.26803648 -168.23046875 1022.46484375 C-168.5685304 1021.06282751 -168.90658427 1019.6608094 -169.24462891 1018.25878906 C-180.98639148 969.94183133 -197.20281399 923.3437292 -216.23046875 877.46484375 C-232.23427459 875.85756388 -248.25447485 874.57719168 -264.29326081 873.37449121 C-267.75528907 873.11416696 -271.21707775 872.85069771 -274.67887878 872.58737183 C-286.39373155 871.69677504 -298.10888505 870.81020732 -309.82446289 869.92919922 C-318.4250351 869.2821605 -327.02523812 868.63037975 -335.625 867.97265625 C-336.31924529 867.919591 -337.01349057 867.86652575 -337.72877359 867.81185246 C-360.93203246 866.03574434 -384.09572143 863.98750814 -407.23046875 861.46484375 C-407.40529282 862.13305649 -407.58011688 862.80126923 -407.76023865 863.48973083 C-409.54554108 870.18933871 -411.5878561 876.75261094 -413.828125 883.3125 C-414.54554337 885.43566354 -415.26256592 887.55896087 -415.97924805 889.68237305 C-416.35560394 890.79478363 -416.73195984 891.90719421 -417.11972046 893.05331421 C-431.08319806 934.39966353 -443.93210456 976.09086613 -456.11010742 1017.99682617 C-456.67349664 1019.93413111 -457.23705275 1021.87138751 -457.80078125 1023.80859375 C-458.07779373 1024.76083328 -458.35480621 1025.71307281 -458.64021301 1026.69416809 C-460.73262806 1033.85024943 -462.9289547 1040.97108739 -465.14453125 1048.08984375 C-469.34465167 1061.63306342 -473.16785519 1075.27268276 -476.92497253 1088.94436264 C-477.49438229 1091.01545084 -478.06496748 1093.0862121 -478.63586426 1095.15689087 C-481.09572712 1104.08029943 -483.54557562 1113.00642448 -485.98974609 1121.93414307 C-486.80819633 1124.92360379 -487.62751854 1127.91282301 -488.44775391 1130.90179443 C-501.11319646 1177.05637401 -513.17992609 1223.34810253 -524.96682358 1269.73443413 C-528.45298 1283.45224898 -532.00096333 1297.15261599 -535.60546875 1310.83984375 C-540.16642325 1328.17902975 -544.52493572 1345.56698971 -548.85546875 1362.96484375 C-591.5427203 1534.44218489 -591.5427203 1534.44218489 -674.23046875 1717.46484375 C-674.68389648 1717.98385254 -675.13732422 1718.50286133 -675.60449219 1719.03759766 C-697.97572647 1744.52466517 -728.512491 1763.25481342 -762.8515625 1765.984375 C-776.02461437 1766.74472593 -788.31675934 1766.19894261 -801.23046875 1763.46484375 C-801.90899902 1763.3241748 -802.5875293 1763.18350586 -803.28662109 1763.03857422 C-830.5349294 1757.16709106 -855.39829038 1740.58767446 -875.23046875 1721.46484375 C-876.07907471 1720.65490967 -876.07907471 1720.65490967 -876.94482422 1719.82861328 C-885.54332771 1711.58828749 -893.38339725 1703.22751653 -900.23046875 1693.46484375 C-900.83036621 1692.6155127 -900.83036621 1692.6155127 -901.44238281 1691.74902344 C-911.7200683 1677.07707813 -920.59360326 1661.47005426 -928.33496094 1645.32519531 C-929.18454834 1643.56024002 -930.05460374 1641.80518021 -930.92578125 1640.05078125 C-970.11559297 1559.30154128 -980.99160929 1464.50596653 -995.91796875 1277.96484375 C-995.97881653 1276.66973877 -996.03966431 1275.37463379 -996.10235596 1274.0402832 C-997.80816144 1237.2061511 -998.41930015 1200.39712881 -998.41577148 1163.52539062 C-998.41569042 1159.16597325 -998.42262757 1154.80666142 -998.4362793 1150.44726562 C-998.5281553 1120.56854449 -997.91351525 1090.8049535 -996.36044693 1060.9654541 C-996.23848161 1058.61900078 -996.11927075 1056.2724267 -996.00106812 1053.92578125 C-995.5496341 1045.01860063 -995.03871972 1036.11595458 -994.48046875 1027.21484375 C-994.4398444 1026.56345428 -994.39922005 1025.91206482 -994.35736465 1025.24093628 C-987.37722722 913.64461827 -987.37722722 913.64461827 -973.23046875 861.46484375 C-972.89145439 860.12772392 -972.55286445 858.79049637 -972.21484375 857.453125 C-967.20935291 839.19156732 -954.46992958 822.60101233 -938.41796875 812.71484375 C-923.12188213 804.15841216 -905.42114397 801.85114304 -888.44921875 806.3671875 C-871.51617272 812.14168499 -857.28705186 822.89831037 -849.28613281 839.07373047 C-840.33068921 857.87264435 -842.11041732 876.35109905 -846.79296875 896.15234375 C-851.66875 916.77862951 -855.17395251 937.49518036 -858.23046875 958.46484375 C-858.44896484 959.96247253 -858.44896484 959.96247253 -858.671875 961.49035645 C-866.83456404 1017.8214136 -871.66547217 1074.6135832 -874.23046875 1131.46484375 C-874.26700562 1132.25187683 -874.30354248 1133.03890991 -874.34118652 1133.84979248 C-878.94774551 1233.69218839 -874.79927727 1335.94056663 -795.85546875 1623.71484375 C-789.97855935 1630.07895808 -784.04347386 1635.43177079 -775.23046875 1636.46484375 C-767.75400573 1628.12231291 -762.40125226 1619.33870171 -757.23046875 1609.46484375 C-756.90224121 1608.84544922 -756.57401367 1608.22605469 -756.23583984 1607.58789062 C-715.79775604 1530.8560624 -696.19862196 1441.52498108 -664.23046875 1329.46484375 C-664.02399467 1328.73919724 -663.8175206 1328.01355072 -663.60478973 1327.26591492 C-660.35179058 1315.83314038 -657.10215703 1304.39941203 -653.85546875 1292.96484375 C-653.63565464 1292.19073277 -653.41584053 1291.41662178 -653.18936539 1290.61905289 C-648.18899554 1273.00809305 -643.20327326 1255.39318632 -638.26171875 1237.765625 C-619.38029154 1170.42516032 -599.83220253 1103.3001076 -579.23046875 1036.46484375 C-578.87577515 1035.31330811 -578.52108154 1034.16177246 -578.15563965 1032.9753418 C-566.89465097 996.42476561 -555.1457329 960.05800314 -543.01060486 923.78869629 C-540.9922718 917.75332912 -538.98563333 911.71421528 -536.98828125 905.671875 C-530.64897776 886.51150686 -524.0706086 867.45255021 -517.23046875 848.46484375 C-518.09760498 848.42891113 -518.96474121 848.39297852 -519.8581543 848.35595703 C-532.67633829 847.69920219 -545.32825182 846.050015 -558.04296875 844.33984375 C-559.78929092 844.10642273 -559.78929092 844.10642273 -561.57089233 843.86828613 C-652.77380314 831.63904317 -746.57822506 814.89580615 -831.23046875 777.46484375 C-832.69516602 776.82796631 -832.69516602 776.82796631 -834.18945312 776.17822266 C-888.188567 752.63858312 -943.25339753 715.03924397 -966.23046875 658.46484375 C-968.1024278 653.52821677 -969.69890348 648.51731367 -971.23046875 643.46484375 C-971.52824219 642.49804688 -971.82601562 641.53125 -972.1328125 640.53515625 C-975.54865809 628.80911916 -976.55822463 617.20261863 -976.48046875 605.02734375 C-976.48820313 603.82013672 -976.4959375 602.61292969 -976.50390625 601.36914062 C-976.43974305 571.38888727 -965.7886487 541.97932477 -947.23046875 518.46484375 C-946.62976563 517.66175781 -946.0290625 516.85867188 -945.41015625 516.03125 C-936.82874236 504.81078204 -926.45041942 495.00678151 -915.23046875 486.46484375 C-914.19792969 485.67722656 -913.16539062 484.88960937 -912.1015625 484.078125 C-895.79452099 471.91514887 -877.71728866 462.81751541 -859.23046875 454.46484375 C-858.56160645 454.16239746 -857.89274414 453.85995117 -857.20361328 453.54833984 C-819.02261636 436.60807292 -776.62243745 429.44461082 -735.23046875 426.46484375 C-734.45541992 426.40699707 -733.68037109 426.34915039 -732.88183594 426.28955078 C-644.48598526 419.92157265 -555.01380345 441.8131548 -439.6484375 488.35742188 C-436.81813212 489.65369259 -433.97731707 490.92566636 -431.13671875 492.19921875 C-416.79903667 498.67210738 -402.92164998 505.71955763 -389.23046875 513.46484375 C-389.05464767 512.91916245 -388.8788266 512.37348114 -388.69767761 511.81126404 C-386.89207326 506.29076405 -384.89233517 500.88529383 -382.71875 495.5 C-382.37556229 494.64648453 -382.03237457 493.79296906 -381.67878723 492.91358948 C-377.06998903 481.51586033 -372.24463637 470.20906703 -367.41796875 458.90234375 C-366.91802399 457.72976013 -366.41807922 456.55717651 -365.90298462 455.34906006 C-352.42807121 423.75961529 -338.49742445 392.37909779 -324.3659668 361.07861328 C-323.84565636 359.92610077 -323.84565636 359.92610077 -323.31483459 358.75030518 C-322.62950441 357.23231353 -321.94407057 355.71436867 -321.25852966 354.19647217 C-319.2086261 349.6519902 -317.17870939 345.09911529 -315.16172791 340.53993225 C-311.29242914 331.79571442 -307.31890021 323.10865684 -303.23046875 314.46484375 C-302.71214478 313.36849609 -302.71214478 313.36849609 -302.18334961 312.25 C-297.35989801 302.05446786 -292.51067646 291.87114282 -287.66407776 281.68659973 C-285.4020345 276.93228307 -283.14638894 272.17505735 -280.8984375 267.4140625 C-276.14002096 257.35674296 -271.20583776 247.43172919 -265.96484375 237.6171875 C-263.26116573 232.54829638 -260.63183462 227.44218525 -258.00146484 222.33496094 C-253.05464971 212.73175681 -248.06203122 203.17307087 -242.6953125 193.796875 C-239.68824968 188.54060612 -236.77275175 183.23360719 -233.84191895 177.93460083 C-217.12601847 147.73334779 -199.55869371 118.0728773 -180.23046875 89.46484375 C-179.34584961 88.15241699 -179.34584961 88.15241699 -178.44335938 86.81347656 C-170.3654819 74.84136416 -162.12939801 63.0074082 -153.60400391 51.34960938 C-152.38048794 49.67070016 -151.16979818 47.98246078 -149.9609375 46.29296875 C-145.306031 39.79262595 -140.36908503 33.58883653 -135.23046875 27.46484375 C-134.78719238 26.92988281 -134.34391602 26.39492187 -133.88720703 25.84375 C-122.42005421 12.01770845 -111.50321993 -0.44797277 -95.23046875 -8.53515625 C-94.38097656 -9.01339844 -93.53148437 -9.49164063 -92.65625 -9.984375 C-63.45382269 -26.05777714 -25.43001607 -20.35097045 0 0 Z M-82.23046875 157.46484375 C-103.77521946 184.99154556 -123.03502022 214.16619276 -140.8828125 244.20703125 C-142.47931752 246.88175561 -144.08895263 249.54838157 -145.69921875 252.21484375 C-153.20168826 264.64899973 -160.5711631 277.14333922 -167.71386719 289.78759766 C-169.32791206 292.63685973 -170.95422616 295.47889139 -172.58203125 298.3203125 C-173.7150325 300.30588189 -174.84784922 302.29155659 -175.98046875 304.27734375 C-176.48723145 305.15922363 -176.99399414 306.04110352 -177.51611328 306.94970703 C-181.67832422 314.27492932 -185.4366462 321.77451273 -189.16900635 329.32400513 C-190.95251013 332.92111207 -192.75880893 336.50673607 -194.5625 340.09375 C-202.53374995 355.97307892 -210.44808212 371.86950825 -218.03320312 387.93798828 C-219.20887134 390.41926194 -220.39706471 392.89409961 -221.58984375 395.3671875 C-227.15676868 406.93172291 -232.49537665 418.59295326 -237.78652954 430.28543091 C-241.34555345 438.1501494 -244.92063629 446.00005112 -248.66796875 453.77734375 C-267.1018168 492.25894115 -283.35176738 531.87512359 -299.23046875 571.46484375 C-296.47656017 574.26569899 -293.74744122 576.97478149 -290.6640625 579.41015625 C-290.02001465 579.92392822 -289.3759668 580.4377002 -288.71240234 580.96704102 C-287.70040771 581.77032837 -287.70040771 581.77032837 -286.66796875 582.58984375 C-280.62081834 587.44338711 -274.85027314 592.45891234 -269.1875 597.7578125 C-266.6895336 600.076105 -264.10210174 602.26144921 -261.47924805 604.4362793 C-254.38863723 610.33810666 -247.81568009 616.69269906 -241.29296875 623.21484375 C-240.40488525 624.10220215 -239.51680176 624.98956055 -238.60180664 625.90380859 C-233.61250816 630.93502604 -228.82736243 636.07414361 -224.23046875 641.46484375 C-223.25729093 642.58271122 -222.28336076 643.69992426 -221.30859375 644.81640625 C-215.24915112 651.81326788 -209.40559059 658.93911204 -203.734375 666.25390625 C-201.67676453 668.90724247 -199.55684326 671.50139689 -197.41796875 674.08984375 C-192.20774709 680.57864741 -187.55312051 687.47583611 -182.81640625 694.3125 C-180.60078563 697.50908694 -178.36299229 700.68565914 -176.08203125 703.8359375 C-169.59159179 712.81912785 -163.74210379 722.04574395 -158.1171875 731.59375 C-155.06807916 736.76876726 -151.91815362 741.87757672 -148.65209961 746.91870117 C-146.71892782 749.92942934 -145.10082687 752.75942604 -143.65234375 756.05078125 C-142.10930579 759.46982853 -140.83892596 761.76565333 -138.23046875 764.46484375 C-135.52008394 765.16148377 -133.3510584 765.5208885 -130.60473633 765.70458984 C-129.480792 765.80728463 -129.480792 765.80728463 -128.33414173 765.91205406 C-125.96754553 766.12112593 -123.60021355 766.29557326 -121.23046875 766.46484375 C-119.76770782 766.58166503 -118.30500859 766.69926186 -116.84237671 766.81768799 C-112.33227379 767.16975857 -107.8191411 767.46398156 -103.3046875 767.75390625 C-101.6570259 767.86280701 -100.00938736 767.97205702 -98.36177063 768.08163452 C-94.94943659 768.30771015 -91.53693777 768.53101072 -88.12426758 768.75195312 C-83.75409373 769.03491772 -79.38427075 769.32292439 -75.01454449 769.61271095 C-70.81970565 769.89067378 -66.62470233 770.16611458 -62.4296875 770.44140625 C-61.23861169 770.51990751 -61.23861169 770.51990751 -60.02347374 770.59999466 C-57.78225781 770.74726241 -55.54093234 770.89272389 -53.29956055 771.03759766 C-52.02735153 771.12038971 -50.75514252 771.20318176 -49.44438171 771.28848267 C-47.0426389 771.42027652 -44.63582489 771.46484375 -42.23046875 771.46484375 C-44.18010932 714.14007562 -46.22575766 656.82049049 -48.57773209 599.51072311 C-48.72619873 595.88171699 -48.87314714 592.25265264 -49.0196228 588.62356567 C-51.74679253 521.21375566 -55.41996402 453.86494558 -59.68968976 386.53654736 C-60.06436438 380.62115147 -60.43380356 374.70544396 -60.80053711 368.78955078 C-65.67031895 287.1712724 -65.67031895 287.1712724 -73.85546875 205.83984375 C-74.14553097 203.40116037 -74.4345822 200.96235654 -74.72265625 198.5234375 C-75.98385166 187.9413395 -77.32135216 177.36818759 -78.81640625 166.81640625 C-78.92973297 165.97572601 -79.04305969 165.13504578 -79.15982056 164.26889038 C-79.44639942 162.322552 -79.82837976 160.39063839 -80.23046875 158.46484375 C-81.22046875 157.96984375 -81.22046875 157.96984375 -82.23046875 157.46484375 Z M-822.23046875 576.46484375 C-823.17921875 576.96886719 -824.12796875 577.47289062 -825.10546875 577.9921875 C-833.4977693 582.72596953 -844.28688625 590.14820062 -847.23046875 599.71484375 C-847.23046875 610.51225397 -838.77418204 618.91277146 -831.79296875 626.33984375 C-825.83495468 632.17109157 -819.10640019 636.70355654 -812.13671875 641.22460938 C-810.49878387 642.29027397 -808.87839928 643.38282776 -807.26171875 644.48046875 C-789.75311311 655.92840321 -769.79323068 664.15218937 -750.22509766 671.36132812 C-748.17236642 672.11775607 -746.12269007 672.88251112 -744.07568359 673.65429688 C-724.42172671 681.05937035 -704.49264575 687.00004478 -684.23046875 692.46484375 C-683.45920654 692.67345032 -682.68794434 692.88205688 -681.89331055 693.09698486 C-630.34900746 707.01191043 -577.99435535 716.83545321 -525.23046875 724.83984375 C-524.15864349 725.00324249 -523.08681824 725.16664124 -521.98251343 725.33499146 C-506.10357504 727.74289653 -490.1951056 729.71702841 -474.23046875 731.46484375 C-473.93360672 730.67590729 -473.63674469 729.88697083 -473.33088684 729.0741272 C-470.46618121 721.46141797 -467.60058083 713.84904621 -464.73408985 706.23700905 C-463.2621308 702.32809927 -461.79046237 698.41908072 -460.31958008 694.50976562 C-458.89554381 690.72505568 -457.47079229 686.94061582 -456.04537582 683.15642548 C-455.47319386 681.63737646 -454.90114452 680.11827749 -454.32922745 678.59912872 C-451.06910374 669.94180271 -447.78781236 661.29315907 -444.46630859 652.65917969 C-444.00974207 651.47109868 -444.00974207 651.47109868 -443.54395199 650.25901604 C-442.08377213 646.46000654 -440.62015899 642.6623885 -439.15034485 638.86709595 C-438.62964458 637.5147988 -438.10906379 636.16245564 -437.58862305 634.81005859 C-437.1319072 633.62922699 -436.67519135 632.44839539 -436.20463562 631.23178101 C-435.11977118 628.63933122 -435.11977118 628.63933122 -435.23046875 626.46484375 C-443.12222907 622.35613974 -451.01925744 618.25782524 -458.92382812 614.17382812 C-460.85304741 613.17674196 -462.7817124 612.17857932 -464.70898438 611.17773438 C-535.29506943 574.58494807 -618.68311622 549.15460833 -698.66796875 549.27734375 C-699.40480896 549.277948 -700.14164917 549.27855225 -700.90081787 549.2791748 C-742.92951564 549.37197587 -784.89220425 556.46668695 -822.23046875 576.46484375 Z M-346.23046875 691.46484375 C-349.6753004 700.4903789 -353.10126989 709.52285809 -356.51147461 718.56152344 C-357.19014003 720.35808563 -357.87135689 722.1536834 -358.55273438 723.94921875 C-359.70501648 726.99256671 -360.84486237 730.04024145 -361.98046875 733.08984375 C-362.50060547 734.45520264 -362.50060547 734.45520264 -363.03125 735.84814453 C-363.33933594 736.6832959 -363.64742187 737.51844727 -363.96484375 738.37890625 C-364.23522461 739.10029785 -364.50560547 739.82168945 -364.78417969 740.56494141 C-365.45385114 742.66934708 -365.45385114 742.66934708 -364.23046875 745.46484375 C-338.9245373 748.11448772 -313.58188191 750.30239101 -288.23046875 752.46484375 C-291.30399074 747.75778744 -291.30399074 747.75778744 -294.78125 743.3515625 C-295.22831299 742.83094238 -295.67537598 742.31032227 -296.13598633 741.77392578 C-296.60029053 741.23880371 -297.06459473 740.70368164 -297.54296875 740.15234375 C-300.65070773 736.5348968 -303.69523673 732.9182998 -306.54296875 729.08984375 C-323.658283 706.19890686 -323.658283 706.19890686 -346.23046875 691.46484375 Z M-85.23046875 884.46484375 C-85.03525635 885.04524414 -84.84004395 885.62564453 -84.63891602 886.22363281 C-82.1507327 893.63119045 -79.68547571 901.04622909 -77.23046875 908.46484375 C-76.87243164 909.54475586 -76.51439453 910.62466797 -76.14550781 911.73730469 C-66.84890747 939.88321042 -58.73576406 968.35593534 -51.23046875 997.02734375 C-50.99886047 997.9115802 -50.7672522 998.79581665 -50.52862549 999.70684814 C-47.94537817 1009.59416314 -45.44922209 1019.48834562 -43.23046875 1029.46484375 C-42.90046875 1029.46484375 -42.57046875 1029.46484375 -42.23046875 1029.46484375 C-41.42039541 1012.94671606 -40.94349409 996.43753592 -40.66796875 979.90234375 C-40.64678986 978.68645569 -40.62561096 977.47056763 -40.60379028 976.21783447 C-40.09235487 946.3009203 -40.12792739 916.38506384 -40.23046875 886.46484375 C-45.19244347 886.17672662 -50.15459869 885.89202534 -55.11694336 885.61035156 C-56.80156617 885.51426244 -58.48613801 885.41727484 -60.1706543 885.31933594 C-62.60582511 885.17791565 -65.04116703 885.03983468 -67.4765625 884.90234375 C-68.21756699 884.85859619 -68.95857147 884.81484863 -69.72203064 884.76977539 C-74.89869011 884.4819117 -80.04572122 884.42897866 -85.23046875 884.46484375 Z " fill="#557650" transform="translate(1091.23046875,167.53515625)"/>
</svg>
