<svg width="64" height="64" viewBox="0 0 64 64" fill="none" xmlns="http://www.w3.org/2000/svg">
<g clip-path="url(#clip0_33_618)">
<path d="M50.6667 2.66667H13.3333C9.79841 2.67091 6.40949 4.07702 3.90992 6.57659C1.41035 9.07616 0.00423429 12.4651 0 16L0 48C0.00423429 51.5349 1.41035 54.9238 3.90992 57.4234C6.40949 59.923 9.79841 61.3291 13.3333 61.3333H50.6667C54.2016 61.3291 57.5905 59.923 60.0901 57.4234C62.5897 54.9238 63.9958 51.5349 64 48V16C63.9958 12.4651 62.5897 9.07616 60.0901 6.57659C57.5905 4.07702 54.2016 2.67091 50.6667 2.66667ZM13.3333 8H50.6667C52.2634 8.00315 53.8227 8.48404 55.1439 9.38081C56.465 10.2776 57.4876 11.5492 58.08 13.032L37.6587 33.456C36.1558 34.9528 34.1211 35.7932 32 35.7932C29.8789 35.7932 27.8442 34.9528 26.3413 33.456L5.92 13.032C6.5124 11.5492 7.53497 10.2776 8.85613 9.38081C10.1773 8.48404 11.7366 8.00315 13.3333 8ZM50.6667 56H13.3333C11.2116 56 9.17677 55.1571 7.67648 53.6569C6.17619 52.1566 5.33333 50.1217 5.33333 48V20L22.5707 37.2267C25.0737 39.7233 28.4647 41.1254 32 41.1254C35.5353 41.1254 38.9263 39.7233 41.4293 37.2267L58.6667 20V48C58.6667 50.1217 57.8238 52.1566 56.3235 53.6569C54.8232 55.1571 52.7884 56 50.6667 56Z" fill="#557650"/>
</g>
<defs>
<clipPath id="clip0_33_618">
<rect width="64" height="64" fill="white"/>
</clipPath>
</defs>
</svg>
